# xmcd
# 
# Track frame offsets:
#     150
#     22340
#     51527
#     71635
#     91055
#     115510
#     139560
#     164000
#     189627
#     216992
# 
# Disc length: 3169
# 
# Revision: 269
# Processed by: cddbd v1.5.2PL0 Copyright (c) Steve Scherf et al.
# Submitted via: BonkEnc v1.0
# 
DISCID=950c5f0a
DTITLE=Leonard Cohen - Ten New Songs
DYEAR=2001
DGENRE=Folk-Rock
TTITLE0=In My Secret Life
TTITLE1=A Thousand Kisses Deep
TTITLE2=That Don't Make It Junk
TTITLE3=Here It Is
TTITLE4=Love Itself
TTITLE5=By The Rivers Dark
TTITLE6=Alexandra Leaving
TTITLE7=You Have Loved Enough
TTITLE8=Boogie Street
TTITLE9=The Land Of Plenty
EXTD=
EXTT0=
EXTT1=
EXTT2=
EXTT3=
EXTT4=
EXTT5=
EXTT6=
EXTT7=
EXTT8=
EXTT9=
PLAYORDER=
